<svg width="21" height="31" viewBox="0 0 21 31" fill="none" xmlns="http://www.w3.org/2000/svg">
<path d="M1.25279 3.82655C0.671106 4.40823 0.671106 5.34484 1.25279 5.92652L3.47108 8.14481L3.86215 8.53589L9.12031 13.794C9.69542 14.3659 9.69214 15.2959 9.12031 15.8677L3.92459 21.0635C3.88187 21.0963 3.83915 21.1325 3.803 21.1719L0.434487 24.5404C0.395051 24.5799 0.352328 24.6259 0.316178 24.6719C-0.0946151 25.1878 -0.104474 25.9174 0.283315 26.4465C0.319464 26.4991 0.358901 26.5484 0.40491 26.5944L0.431201 26.6207L0.894576 27.0841L1.59457 27.784L3.79642 29.9826C3.84572 30.0286 3.89501 30.0746 3.9476 30.1108C4.35839 30.4328 4.90064 30.4953 5.3673 30.3112C5.41002 30.2981 5.45603 30.2751 5.49547 30.2554C5.57105 30.2159 5.64335 30.1699 5.71237 30.1174C5.75838 30.0845 5.80438 30.0483 5.84382 30.0056C5.85697 29.9958 5.86354 29.9892 5.8734 29.9793L9.24191 26.6141C9.25177 26.6042 9.25834 26.5977 9.2682 26.5845C9.30764 26.5451 9.34379 26.4991 9.37665 26.4531L20.0409 15.802C20.6127 15.2302 20.6127 14.3001 20.0409 13.7283L11.802 5.48615L6.74757 0.435031C6.16917 -0.146653 5.22927 -0.143367 4.64759 0.435031L1.25279 3.82983L1.25279 3.82655Z" fill="#051336"/>
</svg>
