<svg width="389" height="105" viewBox="0 0 389 105" fill="none" xmlns="http://www.w3.org/2000/svg">
<g clip-path="url(#clip0_0_97)">
<path d="M173.336 68.472H161.114L135.637 37.6682V68.472H123.415V18.1145H135.637L161.114 48.8494V18.1145H173.336V68.472Z" fill="white"/>
<path d="M232.655 43.2935C232.655 57.6584 220.954 69.36 206.666 69.36C192.377 69.36 180.676 57.6584 180.676 43.2935C180.676 28.9287 192.232 17.2271 206.666 17.2271C221.099 17.2271 232.655 29.0052 232.655 43.2935ZM191.78 43.2935C191.78 51.513 198.446 58.1023 206.666 58.1023C214.885 58.1023 221.405 51.513 221.405 43.2935C221.405 35.0741 214.74 28.5537 206.666 28.5537C198.591 28.5537 191.78 35.143 191.78 43.2935Z" fill="white"/>
<path d="M282.937 37.0024C282.937 44.2575 279.378 50.403 273.975 53.2959L284.345 68.4796H269.238L261.684 55.9668H252.799V68.4796H240.653V18.1145H265.021C275.238 18.1145 282.944 26.0355 282.944 37.0024H282.937ZM252.799 29.3722V44.7014H263.238C267.386 44.7014 270.715 41.2192 270.715 37.0024C270.715 32.7855 267.386 29.3722 263.307 29.3722H252.791H252.799Z" fill="white"/>
<path d="M335.069 29.3722H317.222V68.472H304.931V29.3722H287.084V18.1145H335.069V29.3722Z" fill="white"/>
<path d="M389.865 68.472H377.643V48.9183H355.503V68.472H343.357V18.1145H355.503V37.6682H377.643V18.1145H389.865V68.472Z" fill="white"/>
<path d="M130.946 86.9851C130.464 87.1841 129.461 87.5055 128.145 87.5055C126.828 87.5055 125.711 87.1841 124.747 86.2504C123.951 85.4775 123.423 84.1841 123.423 82.6382C123.423 79.9749 125.175 77.7019 128.436 77.7019C129.469 77.7019 130.303 77.9545 130.678 78.1305L130.456 78.6968C129.959 78.4596 129.316 78.2835 128.405 78.2835C125.749 78.2835 124.127 80.0055 124.127 82.6076C124.127 85.2096 125.719 86.9392 128.252 86.9392C129.262 86.9392 129.905 86.7862 130.265 86.6025V83.2198H128.038V82.6611H130.946V86.9928V86.9851Z" fill="white"/>
<path d="M136.479 77.7935V83.5945C136.479 86.0359 137.627 86.9848 139.035 86.9848C140.619 86.9848 141.721 85.9593 141.721 83.5945V77.7935H142.402V83.5333C142.402 86.4797 140.818 87.5588 138.997 87.5588C137.321 87.5588 135.798 86.5792 135.798 83.6328V77.7935H136.479Z" fill="white"/>
<path d="M148.257 77.7935V87.4058H147.576V77.7935H148.257Z" fill="white"/>
<path d="M153.439 77.9315C154.173 77.809 154.992 77.7249 155.903 77.7249C157.656 77.7249 158.98 78.1993 159.768 79.0412C160.541 79.8371 160.969 80.9162 160.969 82.3703C160.969 83.8244 160.587 85.0565 159.714 86.0132C158.872 86.9392 157.418 87.4826 155.566 87.4826C154.824 87.4826 154.128 87.4673 153.439 87.3984V77.9315ZM154.12 86.8397C154.51 86.9009 155.069 86.9086 155.673 86.9086C158.758 86.9086 160.281 85.1866 160.281 82.4009C160.304 79.9596 158.949 78.2912 155.865 78.2912C155.122 78.2912 154.541 78.3601 154.12 78.4442V86.8397Z" fill="white"/>
<path d="M166.196 77.7935V87.4058H165.515V77.7935H166.196Z" fill="white"/>
<path d="M171.378 87.4061V77.7938H172.021L175.771 83.4724C176.551 84.6739 177.11 85.5617 177.577 86.4954L177.607 86.4724C177.508 85.179 177.5 84.0846 177.5 82.5693V77.7861H178.158V87.3984H177.523L173.857 81.804C173.138 80.702 172.487 79.6918 171.998 78.6969L171.959 78.7198C172.036 79.906 172.051 80.9392 172.051 82.5387V87.3984H171.393L171.378 87.4061Z" fill="white"/>
<path d="M190.227 86.9851C189.745 87.1841 188.742 87.5055 187.426 87.5055C186.11 87.5055 184.992 87.1841 184.028 86.2504C183.232 85.4775 182.704 84.1841 182.704 82.6382C182.704 79.9749 184.457 77.7019 187.717 77.7019C188.75 77.7019 189.584 77.9545 189.959 78.1305L189.737 78.6968C189.24 78.4596 188.597 78.2835 187.686 78.2835C185.031 78.2835 183.408 80.0055 183.408 82.6076C183.408 85.2096 185 86.9392 187.533 86.9392C188.543 86.9392 189.186 86.7862 189.546 86.6025V83.2198H187.319V82.6611H190.227V86.9928V86.9851Z" fill="white"/>
<path d="M202.457 87.4058V83.2501L199.404 77.7935H200.169L201.745 80.6634C202.159 81.4134 202.503 82.0409 202.832 82.7374H202.863C203.161 82.0869 203.544 81.4134 203.972 80.6557L205.618 77.8011H206.383L203.138 83.2731V87.4134H202.465L202.457 87.4058Z" fill="white"/>
<path d="M217.824 82.508C217.824 85.8983 215.75 87.5667 213.523 87.5667C211.158 87.5667 209.329 85.707 209.329 82.6993C209.329 79.6917 211.234 77.6406 213.638 77.6406C216.041 77.6406 217.824 79.5309 217.824 82.508ZM210.033 82.6764C210.033 84.8422 211.288 87.0004 213.561 87.0004C215.834 87.0004 217.112 84.9264 217.112 82.5539C217.112 80.5259 216.002 78.2146 213.584 78.2146C211.166 78.2146 210.025 80.4417 210.025 82.684L210.033 82.6764Z" fill="white"/>
<path d="M223.051 77.7935V83.5945C223.051 86.0359 224.199 86.9848 225.615 86.9848C227.199 86.9848 228.301 85.9593 228.301 83.5945V77.7935H228.975V83.5333C228.975 86.4797 227.391 87.5588 225.569 87.5588C223.893 87.5588 222.37 86.5792 222.37 83.6328V77.7935H223.044H223.051Z" fill="white"/>
<path d="M234.156 77.9315C234.745 77.8014 235.564 77.7249 236.237 77.7249C237.485 77.7249 238.273 77.9927 238.824 78.5361C239.237 78.934 239.498 79.5769 239.498 80.2504C239.498 81.5438 238.732 82.3779 237.615 82.7529V82.7836C238.388 83.0361 238.87 83.7632 239.1 84.8269C239.429 86.327 239.612 87.0387 239.819 87.4213H239.107C238.954 87.1458 238.748 86.2963 238.495 85.0795C238.197 83.6943 237.607 83.0667 236.345 83.0132H234.845V87.4213H234.171V77.9391L234.156 77.9315ZM234.829 82.4545H236.352C237.837 82.4545 238.801 81.6203 238.801 80.3575C238.801 78.8805 237.714 78.2835 236.214 78.2835C235.564 78.2835 235.074 78.3524 234.829 78.4136V82.4545Z" fill="white"/>
<path d="M250.181 77.9085C250.74 77.809 251.428 77.7249 252.232 77.7249C253.38 77.7249 254.245 78.0233 254.773 78.5361C255.24 78.9876 255.507 79.6152 255.507 80.4188C255.507 81.2223 255.278 81.8652 254.842 82.3397C254.229 83.0438 253.196 83.4111 252.018 83.4111C251.589 83.4111 251.191 83.4035 250.854 83.2963V87.406H250.181V77.9085ZM250.854 82.707C251.191 82.8142 251.612 82.8448 252.071 82.8448C253.793 82.8448 254.826 82.0106 254.826 80.4876C254.826 78.9647 253.732 78.2912 252.209 78.2912C251.589 78.2912 251.115 78.3524 250.854 78.406V82.6994V82.707Z" fill="white"/>
<path d="M259.931 84.046L258.745 87.4058H258.048L261.523 77.7935H262.181L265.64 87.4058H264.936L263.727 84.046H259.923H259.931ZM263.528 83.4721L262.357 80.2578C262.12 79.5919 261.99 79.1098 261.852 78.5664H261.814C261.676 79.1251 261.523 79.6225 261.316 80.2348L260.138 83.4721H263.52H263.528Z" fill="white"/>
<path d="M270.753 78.3674H267.623V77.7935H274.564V78.3674H271.434V87.4058H270.753V78.3674Z" fill="white"/>
<path d="M279.095 77.7935V82.018H284.399V77.7935H285.08V87.4058H284.399V82.5996H279.095V87.4058H278.422V77.7935H279.095Z" fill="white"/>
<path d="M297.447 78.3674H294.317V77.7935H301.259V78.3674H298.128V87.4058H297.447V78.3674Z" fill="white"/>
<path d="M312.608 82.508C312.608 85.8983 310.534 87.5667 308.307 87.5667C305.942 87.5667 304.113 85.707 304.113 82.6993C304.113 79.6917 306.019 77.6406 308.422 77.6406C310.825 77.6406 312.608 79.5309 312.608 82.508ZM304.817 82.6764C304.817 84.8422 306.072 87.0004 308.345 87.0004C310.618 87.0004 311.897 84.9264 311.897 82.5539C311.897 80.5259 310.787 78.2146 308.368 78.2146C305.95 78.2146 304.81 80.4417 304.81 82.684L304.817 82.6764Z" fill="white"/>
<path d="M322.832 86.3421C323.376 86.7095 324.126 86.9773 324.929 86.9773C326.368 86.9773 327.248 86.1585 327.248 84.9799C327.248 83.9008 326.689 83.2656 325.304 82.7375C323.758 82.1865 322.832 81.3906 322.832 80.0819C322.832 78.6737 323.996 77.6482 325.626 77.6482C326.529 77.6482 327.21 77.8778 327.539 78.0997L327.271 78.6737C327.011 78.49 326.399 78.2145 325.572 78.2145C324.019 78.2145 323.49 79.2094 323.49 79.9671C323.49 81.0309 324.11 81.5819 325.48 82.1176C327.064 82.7605 327.906 83.4799 327.906 84.9186C327.906 86.3574 326.911 87.559 324.86 87.559C324.026 87.559 323.062 87.2911 322.564 86.9161L322.817 86.3498L322.832 86.3421Z" fill="white"/>
<path d="M333.279 77.7935V83.5945C333.279 86.0359 334.427 86.9848 335.843 86.9848C337.427 86.9848 338.529 85.9593 338.529 83.5945V77.7935H339.203V83.5333C339.203 86.4797 337.619 87.5588 335.797 87.5588C334.121 87.5588 332.598 86.5792 332.598 83.6328V77.7935H333.272H333.279Z" fill="white"/>
<path d="M350.897 87.0693C350.415 87.3142 349.489 87.5514 348.302 87.5514C345.976 87.5514 343.756 86.0667 343.756 82.6534C343.756 79.7988 345.593 77.6406 348.631 77.6406C349.856 77.6406 350.568 77.9085 350.858 78.0615L350.636 78.6355C350.147 78.3906 349.45 78.2146 348.639 78.2146C346.045 78.2146 344.468 79.8983 344.468 82.6611C344.468 85.2708 345.96 86.9545 348.532 86.9545C349.358 86.9545 350.154 86.7861 350.705 86.5106L350.912 87.0616L350.897 87.0693Z" fill="white"/>
<path d="M361.649 87.0693C361.167 87.3142 360.241 87.5514 359.055 87.5514C356.728 87.5514 354.509 86.0667 354.509 82.6534C354.509 79.7988 356.346 77.6406 359.384 77.6406C360.608 77.6406 361.32 77.9085 361.611 78.0615L361.389 78.6355C360.899 78.3906 360.203 78.2146 359.391 78.2146C356.797 78.2146 355.221 79.8983 355.221 82.6611C355.221 85.2708 356.713 86.9545 359.284 86.9545C360.111 86.9545 360.907 86.7861 361.458 86.5106L361.664 87.0616L361.649 87.0693Z" fill="white"/>
<path d="M370.634 82.6302H366.792V86.8318H371.093V87.4058H366.119V77.7935H370.864V78.3674H366.792V82.0562H370.634V82.6302Z" fill="white"/>
<path d="M375.31 86.3421C375.853 86.7095 376.603 86.9773 377.407 86.9773C378.846 86.9773 379.726 86.1585 379.726 84.9799C379.726 83.9008 379.167 83.2656 377.782 82.7375C376.236 82.1865 375.31 81.3906 375.31 80.0819C375.31 78.6737 376.473 77.6482 378.103 77.6482C379.007 77.6482 379.688 77.8778 380.017 78.0997L379.749 78.6737C379.489 78.49 378.876 78.2145 378.05 78.2145C376.496 78.2145 375.968 79.2094 375.968 79.9671C375.968 81.0309 376.588 81.5819 377.958 82.1176C379.542 82.7605 380.384 83.4799 380.384 84.9186C380.384 86.3574 379.389 87.559 377.338 87.559C376.504 87.559 375.54 87.2911 375.042 86.9161L375.295 86.3498L375.31 86.3421Z" fill="white"/>
<path d="M384.776 86.3421C385.32 86.7095 386.07 86.9773 386.873 86.9773C388.312 86.9773 389.192 86.1585 389.192 84.9799C389.192 83.9008 388.634 83.2656 387.248 82.7375C385.702 82.1865 384.776 81.3906 384.776 80.0819C384.776 78.6737 385.94 77.6482 387.57 77.6482C388.473 77.6482 389.154 77.8778 389.483 78.0997L389.215 78.6737C388.955 78.49 388.343 78.2145 387.516 78.2145C385.963 78.2145 385.435 79.2094 385.435 79.9671C385.435 81.0309 386.054 81.5819 387.424 82.1176C389.009 82.7605 389.85 83.4799 389.85 84.9186C389.85 86.3574 388.856 87.559 386.804 87.559C385.97 87.559 385.006 87.2911 384.509 86.9161L384.761 86.3498L384.776 86.3421Z" fill="white"/>
<path d="M1.00951 54.108L4.95086 58.0494L4.88963 58.1106L25.4995 78.7204L25.5607 78.6592L32.0735 85.172C33.3975 86.5036 35.548 86.5266 36.9026 85.2332C36.9256 85.2103 36.9409 85.1949 36.9638 85.172L38.0582 84.0776L39.7036 82.4322L44.8695 77.2663C45.8797 76.2561 46.1322 74.802 45.6424 73.5699C45.6042 73.4704 45.5506 73.3632 45.5047 73.2714C45.3516 72.9729 45.168 72.6974 44.9231 72.4449C44.9001 72.4143 44.8848 72.3989 44.8618 72.376L38.3567 65.8632H38.3643L17.7545 45.2457L17.7392 45.261L13.7979 41.3197C12.4433 39.9651 10.2621 39.9651 8.90752 41.3197L6.1677 44.0595L1.00185 49.2253C-0.352749 50.5799 -0.345095 52.7687 1.00185 54.1157L1.00951 54.108Z" fill="white"/>
<path d="M26.1733 44.7557C27.5279 46.1103 29.709 46.1103 31.0636 44.7557L36.2295 39.5899L37.1402 38.6791L49.3852 26.4342C50.7168 25.0949 52.8827 25.1025 54.2143 26.4342L66.3139 38.5337C66.3904 38.6332 66.4746 38.7327 66.5664 38.8169L74.4109 46.6613C74.5027 46.7532 74.6098 46.8527 74.717 46.9369C75.9185 47.8935 77.6175 47.9165 78.8497 47.0134C78.9721 46.9292 79.0869 46.8374 79.1941 46.7302L79.2553 46.669L80.3344 45.5899L81.9645 43.9598L87.0844 38.8322C87.1916 38.7174 87.2987 38.6026 87.3829 38.4802C88.1329 37.5235 88.2783 36.2608 87.8497 35.174C87.8191 35.0745 87.7655 34.9674 87.7196 34.8755C87.6278 34.6995 87.5206 34.5312 87.3982 34.3704C87.3217 34.2633 87.2375 34.1562 87.138 34.0643C87.115 34.0337 87.0997 34.0184 87.0768 33.9954L79.24 26.151C79.217 26.128 79.2017 26.1127 79.1711 26.0898C79.0793 25.9979 78.9721 25.9138 78.865 25.8372L54.0612 1.00288C52.7296 -0.32876 50.5638 -0.32876 49.2321 1.00288L30.0381 20.1892L18.2753 31.9597C16.9207 33.3067 16.9283 35.4955 18.2753 36.8501L26.181 44.7557H26.1733Z" fill="white"/>
<path d="M55.7281 80.7101C55.1158 80.0979 54.3429 79.7305 53.547 79.631C53.547 79.631 53.547 79.631 53.5316 79.631C53.3633 79.631 53.1949 79.6157 53.0189 79.5928C52.1082 79.5928 51.1898 79.9219 50.4628 80.58L50.4398 80.6106C50.4015 80.6413 50.3556 80.6795 50.3173 80.7178L47.2791 83.7484L41.5698 89.4576C41.5698 89.4576 41.4933 89.5342 41.4703 89.5724L41.4397 89.603C40.2994 90.8582 40.1464 92.6796 40.9805 94.0878C41.1336 94.3633 41.3326 94.6235 41.5698 94.8607L50.3173 103.608C50.7153 104.006 51.1898 104.312 51.6949 104.496C52.9194 105.055 54.3965 104.848 55.422 103.876C55.4602 103.845 55.4985 103.815 55.5291 103.777C55.5444 103.777 55.5597 103.761 55.5597 103.746C55.6133 103.715 55.6592 103.662 55.7128 103.616L56.9296 102.407L58.7434 100.585L60.5496 98.7715L64.4603 94.8684C64.4603 94.8684 64.5215 94.8072 64.5521 94.7765C65.9603 93.2765 65.922 90.927 64.4603 89.4653L55.7128 80.7254L55.7281 80.7101Z" fill="white"/>
<path d="M83.3951 51.3221C83.3951 51.3221 83.3722 51.368 83.3568 51.391L74.7012 60.0467C74.6093 60.1155 74.5175 60.1844 74.4333 60.2686L69.6654 65.0365C69.543 65.1283 69.4205 65.2278 69.3134 65.3426L66.6578 67.9906L65.3797 69.2763C64.446 70.187 63.5047 71.0977 62.5786 72.0161V72.0774L61.6832 72.9804C61.5761 73.0876 61.4766 73.2024 61.3848 73.3172C60.4128 74.5952 60.4894 76.4243 61.6067 77.6105C61.6297 77.6412 61.6526 77.6641 61.6832 77.6947L69.321 85.3325C69.321 85.3325 69.3746 85.3861 69.4052 85.4091C70.6068 86.5494 72.4435 86.6106 73.7216 85.6157C73.8287 85.5315 73.9359 85.4397 74.043 85.3402L75.1068 84.2764L76.691 82.6922L79.7369 79.6463L96.1069 63.2763L96.1682 63.2227L97.2243 62.1589L98.7779 60.6053L98.8161 60.5671L98.9386 60.4446L100.339 59.0441L103.806 55.5696C103.913 55.4624 104.005 55.3477 104.097 55.2252C104.541 54.6589 104.763 53.9854 104.786 53.3119C104.786 53.1589 104.786 53.0134 104.77 52.8604C104.717 52.1946 104.479 51.5441 104.036 50.993C104.013 50.9624 103.997 50.9471 103.974 50.9242C103.951 50.8935 103.928 50.8706 103.898 50.84L96.2753 43.2175C96.2753 43.2175 96.237 43.1792 96.2064 43.1562C96.1146 43.0644 96.0074 42.9802 95.908 42.9037C95.311 42.4598 94.6069 42.2379 93.9028 42.2379C93.2064 42.2149 92.51 42.4139 91.913 42.8195C91.7447 42.9343 91.5916 43.0644 91.4385 43.2098L88.7906 45.8578L83.7931 50.8553C83.6477 51.0007 83.5176 51.1614 83.4028 51.3298L83.3951 51.3221Z" fill="white"/>
</g>
<defs>
<clipPath id="clip0_0_97">
<rect width="389" height="104.794" fill="white"/>
</clipPath>
</defs>
</svg>
