<svg width="231" height="63" viewBox="0 0 231 63" fill="none" xmlns="http://www.w3.org/2000/svg">
<g clip-path="url(#clip0_0_43)">
<path d="M102.933 45.6426H95.6748L80.5456 27.3503V45.6426H73.2878V15.7388H80.5456L95.6748 33.9901V15.7388H102.933V45.6426Z" fill="white"/>
<path d="M138.158 30.6907C138.158 39.2211 131.21 46.1698 122.725 46.1698C114.24 46.1698 107.291 39.2211 107.291 30.6907C107.291 22.1604 114.153 15.2117 122.725 15.2117C131.296 15.2117 138.158 22.2059 138.158 30.6907ZM113.885 30.6907C113.885 35.5717 117.844 39.4846 122.725 39.4846C127.606 39.4846 131.478 35.5717 131.478 30.6907C131.478 25.8098 127.519 21.9378 122.725 21.9378C117.93 21.9378 113.885 25.8507 113.885 30.6907Z" fill="white"/>
<path d="M168.016 26.955C168.016 31.2633 165.903 34.9126 162.695 36.6305L168.853 45.6471H159.881L155.396 38.2166H150.12V45.6471H142.907V15.7388H157.377C163.444 15.7388 168.021 20.4425 168.021 26.955H168.016ZM150.12 22.4239V31.5269H156.318C158.782 31.5269 160.759 29.4591 160.759 26.955C160.759 24.4509 158.782 22.4239 156.359 22.4239H150.115H150.12Z" fill="white"/>
<path d="M198.975 22.4239H188.377V45.6426H181.078V22.4239H170.48V15.7388H198.975V22.4239Z" fill="white"/>
<path d="M231.514 45.6426H224.257V34.031H211.109V45.6426H203.896V15.7388H211.109V27.3503H224.257V15.7388H231.514V45.6426Z" fill="white"/>
<path d="M0.599552 32.1281L2.94005 34.4686L2.90369 34.5049L15.1424 46.7437L15.1788 46.7073L19.0463 50.5748C19.8325 51.3656 21.1096 51.3792 21.914 50.6112C21.9276 50.5975 21.9367 50.5884 21.9503 50.5748L22.6002 49.9249L23.5773 48.9478L26.6449 45.8802C27.2448 45.2803 27.3948 44.4168 27.1039 43.6851C27.0812 43.626 27.0494 43.5624 27.0221 43.5079C26.9313 43.3306 26.8222 43.167 26.6768 43.0171C26.6631 42.9989 26.654 42.9898 26.6404 42.9762L22.7774 39.1087H22.782L10.5432 26.8654L10.5342 26.8745L8.19366 24.534C7.38926 23.7296 6.09403 23.7296 5.28963 24.534L3.66265 26.1609L0.595007 29.2286C-0.209396 30.033 -0.204851 31.3328 0.595007 32.1326L0.599552 32.1281Z" fill="white"/>
<path d="M15.5424 26.5746C16.3468 27.379 17.642 27.379 18.4464 26.5746L21.5141 23.507L22.0549 22.9661L29.3263 15.6947C30.1171 14.8994 31.4032 14.9039 32.194 15.6947L39.3791 22.8798C39.4245 22.9389 39.4745 22.998 39.5291 23.0479L44.1873 27.7062C44.2419 27.7607 44.3055 27.8198 44.3691 27.8698C45.0826 28.4379 46.0915 28.4515 46.8232 27.9153C46.896 27.8653 46.9641 27.8107 47.0277 27.7471L47.0641 27.7108L47.7049 27.07L48.6729 26.1019L51.7133 23.057C51.7769 22.9889 51.8405 22.9207 51.8905 22.848C52.3359 22.2799 52.4222 21.53 52.1677 20.8847C52.1496 20.8256 52.1178 20.762 52.0905 20.7075C52.0359 20.6029 51.9723 20.5029 51.8996 20.4075C51.8542 20.3439 51.8042 20.2803 51.7451 20.2257C51.7315 20.2075 51.7224 20.1984 51.7087 20.1848L47.055 15.5265C47.0414 15.5129 47.0323 15.5038 47.0141 15.4902C46.9596 15.4357 46.896 15.3857 46.8323 15.3402L32.1031 0.592833C31.3123 -0.197936 30.0262 -0.197936 29.2354 0.592833L17.8375 11.9863L10.8523 18.9759C10.0479 19.7758 10.0525 21.0756 10.8523 21.88L15.547 26.5746H15.5424Z" fill="white"/>
<path d="M33.0937 47.9255C32.7301 47.5619 32.2711 47.3438 31.7985 47.2847C31.7985 47.2847 31.7985 47.2847 31.7894 47.2847C31.6894 47.2847 31.5894 47.2756 31.4849 47.262C30.9441 47.262 30.3987 47.4574 29.967 47.8482L29.9533 47.8664C29.9306 47.8846 29.9033 47.9073 29.8806 47.93L28.0764 49.7297L24.6861 53.12C24.6861 53.12 24.6406 53.1655 24.627 53.1882L24.6088 53.2064C23.9317 53.9517 23.8408 55.0333 24.3361 55.8695C24.427 56.0331 24.5452 56.1877 24.6861 56.3285L29.8806 61.5231C30.1169 61.7594 30.3987 61.9412 30.6987 62.0502C31.4258 62.382 32.3029 62.2593 32.9119 61.6821C32.9346 61.664 32.9573 61.6458 32.9755 61.6231C32.9846 61.6231 32.9937 61.614 32.9937 61.6049C33.0255 61.5867 33.0528 61.5549 33.0846 61.5276L33.8072 60.8096L34.8843 59.7279L35.9568 58.6509L38.2791 56.3331C38.2791 56.3331 38.3155 56.2967 38.3337 56.2785C39.1699 55.3878 39.1472 53.9926 38.2791 53.1246L33.0846 47.9346L33.0937 47.9255Z" fill="white"/>
<path d="M49.5224 30.4739C49.5224 30.4739 49.5088 30.5012 49.4997 30.5148L44.3597 35.6548C44.3052 35.6957 44.2506 35.7366 44.2007 35.7866L41.3693 38.6179C41.2966 38.6725 41.2239 38.7316 41.1603 38.7997L39.5833 40.3722L38.8243 41.1357C38.2699 41.6765 37.7109 42.2173 37.161 42.7627V42.799L36.6293 43.3353C36.5656 43.3989 36.5066 43.4671 36.452 43.5353C35.8749 44.2942 35.9203 45.3804 36.5838 46.0848C36.5975 46.103 36.6111 46.1166 36.6293 46.1348L41.1648 50.6704C41.1648 50.6704 41.1966 50.7022 41.2148 50.7158C41.9283 51.393 43.019 51.4293 43.778 50.8385C43.8416 50.7885 43.9053 50.734 43.9689 50.6749L44.6006 50.0432L45.5413 49.1025L47.3501 47.2937L57.0711 37.5727L57.1075 37.5409L57.7346 36.9092L58.6572 35.9866L58.6799 35.9639L58.7526 35.8912L59.5843 35.0595L61.643 32.9962C61.7066 32.9326 61.7612 32.8644 61.8157 32.7917C62.0793 32.4554 62.2111 32.0555 62.2247 31.6555C62.2247 31.5646 62.2247 31.4783 62.2156 31.3874C62.1838 30.992 62.043 30.6057 61.7794 30.2785C61.7657 30.2603 61.7566 30.2512 61.743 30.2376C61.7294 30.2194 61.7157 30.2058 61.6976 30.1876L57.1711 25.6611C57.1711 25.6611 57.1484 25.6384 57.1302 25.6248C57.0756 25.5703 57.012 25.5203 56.9529 25.4748C56.5985 25.2112 56.1804 25.0794 55.7622 25.0794C55.3487 25.0658 54.9351 25.184 54.5806 25.4248C54.4807 25.493 54.3898 25.5703 54.2989 25.6566L52.7264 27.229L49.7588 30.1967C49.6724 30.2831 49.5952 30.3785 49.527 30.4785L49.5224 30.4739Z" fill="white"/>
</g>
<defs>
<clipPath id="clip0_0_43">
<rect width="231" height="62.2299" fill="white"/>
</clipPath>
</defs>
</svg>
