<svg width="231" height="63" viewBox="0 0 231 63" fill="none" xmlns="http://www.w3.org/2000/svg">
<g clip-path="url(#clip0_73_265)">
<path d="M102.932 45.6428H95.6741L80.5449 27.3506V45.6428H73.2871V15.739H80.5449L95.6741 33.9903V15.739H102.932V45.6428Z" fill="#051336"/>
<path d="M138.158 30.691C138.158 39.2213 131.21 46.1701 122.725 46.1701C114.24 46.1701 107.291 39.2213 107.291 30.691C107.291 22.1607 114.153 15.2119 122.725 15.2119C131.296 15.2119 138.158 22.2061 138.158 30.691ZM113.885 30.691C113.885 35.5719 117.844 39.4849 122.725 39.4849C127.606 39.4849 131.478 35.5719 131.478 30.691C131.478 25.81 127.519 21.938 122.725 21.938C117.93 21.938 113.885 25.8509 113.885 30.691Z" fill="#051336"/>
<path d="M168.015 26.9555C168.015 31.2638 165.902 34.9131 162.694 36.631L168.852 45.6476H159.881L155.395 38.2171H150.119V45.6476H142.906V15.7393H157.376C163.444 15.7393 168.02 20.443 168.02 26.9555H168.015ZM150.119 22.4244V31.5274H156.318C158.781 31.5274 160.758 29.4596 160.758 26.9555C160.758 24.4514 158.781 22.4244 156.358 22.4244H150.114H150.119Z" fill="#051336"/>
<path d="M198.973 22.4244H188.375V45.6431H181.077V22.4244H170.479V15.7393H198.973V22.4244Z" fill="#051336"/>
<path d="M231.514 45.6431H224.257V34.0315H211.109V45.6431H203.896V15.7393H211.109V27.3508H224.257V15.7393H231.514V45.6431Z" fill="#051336"/>
<path d="M0.600285 32.1281L2.94078 34.4686L2.90442 34.5049L15.1432 46.7437L15.1795 46.7073L19.047 50.5748C19.8332 51.3656 21.1103 51.3792 21.9147 50.6112C21.9283 50.5975 21.9374 50.5884 21.951 50.5748L22.6009 49.9249L23.578 48.9478L26.6457 45.8802C27.2456 45.2803 27.3955 44.4168 27.1047 43.6851C27.082 43.626 27.0501 43.5624 27.0229 43.5079C26.932 43.3306 26.8229 43.167 26.6775 43.0171C26.6639 42.9989 26.6548 42.9898 26.6411 42.9762L22.7782 39.1087H22.7827L10.544 26.8654L10.5349 26.8745L8.19439 24.534C7.38999 23.7296 6.09477 23.7296 5.29036 24.534L3.66338 26.1609L0.59574 29.2286C-0.208663 30.033 -0.204119 31.3328 0.59574 32.1326L0.600285 32.1281Z" fill="#051336"/>
<path d="M15.5436 26.5748C16.348 27.3792 17.6433 27.3792 18.4477 26.5748L21.5153 23.5072L22.0561 22.9664L29.3276 15.6949C30.1183 14.8996 31.4045 14.9042 32.1952 15.6949L39.3803 22.88C39.4258 22.9391 39.4758 22.9982 39.5303 23.0482L44.1886 27.7065C44.2431 27.761 44.3067 27.8201 44.3703 27.8701C45.0839 28.4381 46.0928 28.4518 46.8245 27.9155C46.8972 27.8655 46.9653 27.811 47.029 27.7474L47.0653 27.711L47.7061 27.0702L48.6741 26.1022L51.7145 23.0573C51.7781 22.9891 51.8418 22.9209 51.8917 22.8482C52.3371 22.2801 52.4235 21.5303 52.169 20.8849C52.1508 20.8259 52.119 20.7622 52.0917 20.7077C52.0372 20.6032 51.9735 20.5032 51.9008 20.4077C51.8554 20.3441 51.8054 20.2805 51.7463 20.226C51.7327 20.2078 51.7236 20.1987 51.71 20.1851L47.0562 15.5268C47.0426 15.5132 47.0335 15.5041 47.0153 15.4904C46.9608 15.4359 46.8972 15.3859 46.8335 15.3405L32.1043 0.593077C31.3136 -0.197692 30.0274 -0.197692 29.2367 0.593077L17.8387 11.9865L10.8536 18.9762C10.0491 19.776 10.0537 21.0758 10.8536 21.8802L15.5482 26.5748H15.5436Z" fill="#051336"/>
<path d="M33.0949 47.9252C32.7313 47.5617 32.2723 47.3435 31.7997 47.2844C31.7997 47.2844 31.7997 47.2844 31.7906 47.2844C31.6906 47.2844 31.5906 47.2754 31.4861 47.2617C30.9453 47.2617 30.3999 47.4571 29.9682 47.848L29.9546 47.8662C29.9318 47.8843 29.9046 47.9071 29.8818 47.9298L28.0776 49.7295L24.6873 53.1198C24.6873 53.1198 24.6419 53.1652 24.6282 53.1879L24.61 53.2061C23.9329 53.9514 23.842 55.0331 24.3374 55.8693C24.4283 56.0329 24.5464 56.1874 24.6873 56.3283L29.8818 61.5228C30.1182 61.7592 30.3999 61.9409 30.6999 62.05C31.427 62.3818 32.3041 62.2591 32.9131 61.6819C32.9358 61.6637 32.9586 61.6455 32.9767 61.6228C32.9858 61.6228 32.9949 61.6137 32.9949 61.6046C33.0267 61.5865 33.054 61.5546 33.0858 61.5274L33.8084 60.8093L34.8855 59.7277L35.958 58.6506L38.2803 56.3328C38.2803 56.3328 38.3167 56.2965 38.3349 56.2783C39.1711 55.3875 39.1484 53.9923 38.2803 53.1243L33.0858 47.9343L33.0949 47.9252Z" fill="#051336"/>
<path d="M49.5229 30.4747C49.5229 30.4747 49.5093 30.5019 49.5002 30.5156L44.3602 35.6556C44.3057 35.6965 44.2511 35.7374 44.2011 35.7874L41.3698 38.6187C41.2971 38.6732 41.2244 38.7323 41.1608 38.8005L39.5838 40.3729L38.8248 41.1364C38.2704 41.6772 37.7114 42.218 37.1615 42.7634V42.7998L36.6298 43.336C36.5661 43.3996 36.5071 43.4678 36.4525 43.536C35.8753 44.2949 35.9208 45.3811 36.5843 46.0855C36.5979 46.1037 36.6116 46.1173 36.6298 46.1355L41.1653 50.6711C41.1653 50.6711 41.1971 50.7029 41.2153 50.7165C41.9288 51.3937 43.0195 51.43 43.7785 50.8392C43.8421 50.7892 43.9057 50.7347 43.9694 50.6756L44.6011 50.0439L45.5418 49.1032L47.3506 47.2944L57.0716 37.5734L57.108 37.5416L57.7351 36.9099L58.6577 35.9873L58.6804 35.9646L58.7531 35.8919L59.5848 35.0602L61.6435 32.9969C61.7071 32.9333 61.7617 32.8651 61.8162 32.7924C62.0798 32.4561 62.2116 32.0562 62.2252 31.6563C62.2252 31.5654 62.2252 31.479 62.2161 31.3881C62.1843 30.9928 62.0434 30.6065 61.7799 30.2792C61.7662 30.2611 61.7571 30.252 61.7435 30.2383C61.7299 30.2202 61.7162 30.2065 61.698 30.1883L57.1716 25.6619C57.1716 25.6619 57.1489 25.6392 57.1307 25.6255C57.0761 25.571 57.0125 25.521 56.9534 25.4755C56.5989 25.212 56.1808 25.0802 55.7627 25.0802C55.3492 25.0665 54.9356 25.1847 54.5811 25.4256C54.4811 25.4937 54.3902 25.571 54.2994 25.6573L52.7269 27.2298L49.7592 30.1974C49.6729 30.2838 49.5956 30.3792 49.5275 30.4792L49.5229 30.4747Z" fill="#051336"/>
</g>
<defs>
<clipPath id="clip0_73_265">
<rect width="231" height="62.2299" fill="white"/>
</clipPath>
</defs>
</svg>
