<svg width="35" height="35" viewBox="0 0 35 35" fill="none" xmlns="http://www.w3.org/2000/svg">
<path d="M34.344 3.10662V31.8934C34.344 32.5515 34.0827 33.1828 33.6177 33.6482C33.1527 34.1135 32.522 34.375 31.8643 34.375H3.10026C2.44262 34.375 1.81191 34.1135 1.34688 33.6482C0.881854 33.1828 0.620605 32.5515 0.620605 31.8934L0.620605 3.10662C0.620605 2.44845 0.881854 1.81724 1.34688 1.35185C1.81191 0.886455 2.44262 0.625 3.10026 0.625L31.8643 0.625C32.522 0.625 33.1527 0.886455 33.6177 1.35185C34.0827 1.81724 34.344 2.44845 34.344 3.10662V3.10662ZM10.5392 13.5294H5.57992V29.4118H10.5392V13.5294ZM10.9856 8.06985C10.9882 7.69442 10.9169 7.32216 10.7757 6.97431C10.6346 6.62646 10.4264 6.30984 10.163 6.04252C9.89954 5.77521 9.58609 5.56245 9.24051 5.41637C8.89493 5.2703 8.52398 5.19377 8.14885 5.19118H8.05958C7.29671 5.19118 6.56509 5.49446 6.02566 6.03432C5.48623 6.57418 5.18318 7.30638 5.18318 8.06985C5.18318 8.83333 5.48623 9.56553 6.02566 10.1054C6.56509 10.6452 7.29671 10.9485 8.05958 10.9485V10.9485C8.43474 10.9578 8.80804 10.8929 9.15815 10.7577C9.50827 10.6225 9.82833 10.4196 10.1001 10.1606C10.3718 9.90155 10.5898 9.59147 10.7418 9.24806C10.8937 8.90466 10.9766 8.53465 10.9856 8.15919V8.06985ZM29.3846 19.7632C29.3846 14.9886 26.3495 13.1324 23.3343 13.1324C22.347 13.0829 21.3641 13.2933 20.4834 13.7427C19.6028 14.1921 18.8553 14.8647 18.3155 15.6934H18.1766V13.5294H13.5148V29.4118H18.4741V20.9643C18.4025 20.0992 18.6748 19.2407 19.2319 18.5753C19.7891 17.9099 20.5861 17.4914 21.4497 17.4107H21.6382C23.2153 17.4107 24.3857 18.4033 24.3857 20.9048V29.4118H29.345L29.3846 19.7632Z" fill="white"/>
</svg>
