<svg width="415" height="16" viewBox="0 0 415 16" fill="none" xmlns="http://www.w3.org/2000/svg">
<path d="M11.7182 14.5557C10.9672 14.8656 9.40554 15.3663 7.35516 15.3663C5.30477 15.3663 3.56433 14.8656 2.0623 13.4113C0.822533 12.2073 0 10.1927 0 7.78465C0 3.6362 2.72988 0.0957031 7.80816 0.0957031C9.41747 0.0957031 10.7168 0.489088 11.301 0.763268L10.9553 1.64542C10.1804 1.27587 9.17904 1.00169 7.76046 1.00169C3.62393 1.00169 1.09672 3.68388 1.09672 7.73697C1.09672 11.7901 3.57625 14.4842 7.52205 14.4842C9.0956 14.4842 10.097 14.2458 10.6572 13.9597V8.69063H7.18827V7.82041H11.7182V14.5676V14.5557Z" fill="#051336"/>
<path d="M20.3363 0.239258V9.27526C20.3363 13.078 22.1245 14.5562 24.3179 14.5562C26.7855 14.5562 28.5021 12.9588 28.5021 9.27526V0.239258H29.5631V9.17989C29.5631 13.7694 27.0955 15.4503 24.2583 15.4503C21.6476 15.4503 19.2754 13.9244 19.2754 9.33486V0.239258H20.3363Z" fill="#051336"/>
<path d="M38.682 0.239258V15.2118H37.6211V0.239258H38.682Z" fill="#051336"/>
<path d="M46.7539 0.452727C47.8983 0.261994 49.1738 0.130859 50.5924 0.130859C53.3223 0.130859 55.3846 0.869953 56.6124 2.18125C57.8165 3.42101 58.484 5.10185 58.484 7.36681C58.484 9.63177 57.888 11.551 56.529 13.0411C55.2177 14.4836 52.9527 15.3299 50.0679 15.3299C48.9116 15.3299 47.8268 15.3061 46.7539 15.1988V0.452727ZM47.8149 14.3286C48.4228 14.424 49.293 14.4359 50.2348 14.4359C55.0389 14.4359 57.4111 11.7537 57.4111 7.4145C57.4469 3.61175 55.3369 1.01301 50.5328 1.01301C49.3765 1.01301 48.4705 1.12029 47.8149 1.25142V14.3286Z" fill="#051336"/>
<path d="M66.6254 0.239258V15.2118H65.5645V0.239258H66.6254Z" fill="#051336"/>
<path d="M74.6953 15.2111V0.238486H75.6967L81.5379 9.08375C82.7538 10.9553 83.624 12.3381 84.3512 13.7925L84.3989 13.7567C84.2439 11.7421 84.232 10.0374 84.232 7.67709V0.226562H85.2572V15.1991H84.2677L78.5577 6.48501C77.4371 4.7684 76.4238 3.19486 75.6609 1.64515L75.6013 1.68091C75.7205 3.52864 75.7443 5.13795 75.7443 7.62941V15.1991H74.7192L74.6953 15.2111Z" fill="#051336"/>
<path d="M104.056 14.5557C103.305 14.8656 101.743 15.3663 99.6931 15.3663C97.6427 15.3663 95.9022 14.8656 94.4002 13.4113C93.1604 12.2073 92.3379 10.1927 92.3379 7.78465C92.3379 3.6362 95.0677 0.0957031 100.146 0.0957031C101.755 0.0957031 103.055 0.489088 103.639 0.763268L103.293 1.64542C102.518 1.27587 101.517 1.00169 100.098 1.00169C95.9618 1.00169 93.4346 3.68388 93.4346 7.73697C93.4346 11.7901 95.9141 14.4842 99.8599 14.4842C101.433 14.4842 102.435 14.2458 102.995 13.9597V8.69063H99.5262V7.82041H104.056V14.5676V14.5557Z" fill="#051336"/>
<path d="M123.106 15.2118V8.73882L118.35 0.239258H119.542L121.997 4.70957C122.641 5.87782 123.178 6.85533 123.69 7.94012H123.738C124.203 6.92685 124.799 5.87782 125.466 4.69765L128.029 0.251181H129.221L124.167 8.77458V15.2238H123.118L123.106 15.2118Z" fill="#051336"/>
<path d="M147.043 7.58166C147.043 12.8626 143.812 15.4613 140.343 15.4613C136.66 15.4613 133.811 12.5646 133.811 7.87968C133.811 3.19479 136.779 0 140.522 0C144.265 0 147.043 2.94445 147.043 7.58166ZM134.907 7.84392C134.907 11.2175 136.862 14.5792 140.403 14.5792C143.943 14.5792 145.934 11.3487 145.934 7.65319C145.934 4.49416 144.206 0.894063 140.439 0.894063C136.672 0.894063 134.895 4.36303 134.895 7.85584L134.907 7.84392Z" fill="#051336"/>
<path d="M155.186 0.239258V9.27526C155.186 13.078 156.974 14.5562 159.179 14.5562C161.647 14.5562 163.364 12.9588 163.364 9.27526V0.239258H164.413V9.17989C164.413 13.7694 161.945 15.4503 159.108 15.4503C156.497 15.4503 154.125 13.9244 154.125 9.33486V0.239258H155.174H155.186Z" fill="#051336"/>
<path d="M172.482 0.452727C173.4 0.250073 174.676 0.130859 175.725 0.130859C177.668 0.130859 178.896 0.548095 179.754 1.39447C180.398 2.01436 180.803 3.01571 180.803 4.06474C180.803 6.07936 179.611 7.37873 177.871 7.96285V8.01054C179.075 8.40392 179.826 9.5364 180.183 11.1934C180.696 13.5299 180.982 14.6385 181.304 15.2346H180.195C179.957 14.8054 179.635 13.4822 179.242 11.5868C178.777 9.42912 177.859 8.45161 175.892 8.36817H173.555V15.2346H172.506V0.464642L172.482 0.452727ZM173.531 7.49794H175.904C178.216 7.49794 179.718 6.19857 179.718 4.23163C179.718 1.93091 178.026 1.00108 175.689 1.00108C174.676 1.00108 173.913 1.10837 173.531 1.20374V7.49794Z" fill="#051336"/>
<path d="M197.443 0.416966C198.314 0.261995 199.386 0.130859 200.638 0.130859C202.426 0.130859 203.773 0.595778 204.596 1.39448C205.323 2.0978 205.74 3.07531 205.74 4.327C205.74 5.57869 205.383 6.58003 204.703 7.31913C203.749 8.41584 202.14 8.98805 200.304 8.98805C199.637 8.98805 199.017 8.97612 198.492 8.80923V15.2107H197.443V0.416966ZM198.492 7.89133C199.017 8.05822 199.673 8.10591 200.388 8.10591C203.07 8.10591 204.679 6.80653 204.679 4.43428C204.679 2.06204 202.975 1.01301 200.602 1.01301C199.637 1.01301 198.898 1.10837 198.492 1.19181V7.87941V7.89133Z" fill="#051336"/>
<path d="M212.632 9.97859L210.784 15.2118H209.699L215.111 0.239258H216.137L221.525 15.2118H220.428L218.545 9.97859H212.62H212.632ZM218.235 9.08452L216.411 4.07777C216.041 3.04066 215.838 2.28965 215.624 1.44327H215.564C215.35 2.31349 215.111 3.08833 214.789 4.042L212.954 9.08452H218.223H218.235Z" fill="#051336"/>
<path d="M229.489 1.13332H224.613V0.239258H235.425V1.13332H230.55V15.2118H229.489V1.13332Z" fill="#051336"/>
<path d="M242.483 0.239258V6.81956H250.744V0.239258H251.805V15.2118H250.744V7.72555H242.483V15.2118H241.434V0.239258H242.483Z" fill="#051336"/>
<path d="M271.069 1.13332H266.193V0.239258H277.006V1.13332H272.13V15.2118H271.069V1.13332Z" fill="#051336"/>
<path d="M294.683 7.58166C294.683 12.8626 291.453 15.4613 287.984 15.4613C284.3 15.4613 281.451 12.5646 281.451 7.87968C281.451 3.19479 284.419 0 288.163 0C291.906 0 294.683 2.94445 294.683 7.58166ZM282.548 7.84392C282.548 11.2175 284.503 14.5792 288.043 14.5792C291.584 14.5792 293.575 11.3487 293.575 7.65319C293.575 4.49416 291.846 0.894063 288.079 0.894063C284.312 0.894063 282.536 4.36303 282.536 7.85584L282.548 7.84392Z" fill="#051336"/>
<path d="M310.611 13.5548C311.457 14.127 312.625 14.5442 313.877 14.5442C316.118 14.5442 317.489 13.2687 317.489 11.4329C317.489 9.75203 316.619 8.7626 314.461 7.94006C312.053 7.08176 310.611 5.84199 310.611 3.80352C310.611 1.61009 312.423 0.0126953 314.962 0.0126953C316.368 0.0126953 317.429 0.370325 317.942 0.71603L317.525 1.61009C317.119 1.32399 316.166 0.894835 314.878 0.894835C312.458 0.894835 311.636 2.44455 311.636 3.62471C311.636 5.28171 312.601 6.14001 314.735 6.97447C317.203 7.97582 318.514 9.09638 318.514 11.3375C318.514 13.5786 316.964 15.4502 313.77 15.4502C312.47 15.4502 310.968 15.033 310.193 14.4488L310.587 13.5667L310.611 13.5548Z" fill="#051336"/>
<path d="M326.881 0.239258V9.27526C326.881 13.078 328.669 14.5562 330.875 14.5562C333.342 14.5562 335.059 12.9588 335.059 9.27526V0.239258H336.108V9.17989C336.108 13.7694 333.64 15.4503 330.803 15.4503C328.193 15.4503 325.82 13.9244 325.82 9.33486V0.239258H326.869H326.881Z" fill="#051336"/>
<path d="M354.323 14.6865C353.572 15.0679 352.13 15.4375 350.282 15.4375C346.658 15.4375 343.201 13.1249 343.201 7.80816C343.201 3.36168 346.062 0 350.795 0C352.702 0 353.811 0.417233 354.264 0.65565L353.918 1.54971C353.155 1.16825 352.07 0.894063 350.807 0.894063C346.766 0.894063 344.31 3.51666 344.31 7.82008C344.31 11.8851 346.634 14.5077 350.64 14.5077C351.927 14.5077 353.167 14.2454 354.025 13.8163L354.347 14.6746L354.323 14.6865Z" fill="#051336"/>
<path d="M371.073 14.6865C370.322 15.0679 368.88 15.4375 367.032 15.4375C363.408 15.4375 359.951 13.1249 359.951 7.80816C359.951 3.36168 362.812 0 367.545 0C369.452 0 370.561 0.417233 371.014 0.65565L370.668 1.54971C369.905 1.16825 368.82 0.894063 367.557 0.894063C363.516 0.894063 361.06 3.51666 361.06 7.82008C361.06 11.8851 363.384 14.5077 367.39 14.5077C368.677 14.5077 369.917 14.2454 370.775 13.8163L371.097 14.6746L371.073 14.6865Z" fill="#051336"/>
<path d="M385.066 7.77323H379.082V14.3178H385.782V15.2118H378.033V0.239258H385.424V1.13332H379.082V6.87917H385.066V7.77323Z" fill="#051336"/>
<path d="M392.351 13.5548C393.197 14.127 394.365 14.5442 395.617 14.5442C397.858 14.5442 399.229 13.2687 399.229 11.4329C399.229 9.75203 398.359 8.7626 396.201 7.94006C393.793 7.08176 392.351 5.84199 392.351 3.80352C392.351 1.61009 394.163 0.0126953 396.702 0.0126953C398.109 0.0126953 399.17 0.370325 399.682 0.71603L399.265 1.61009C398.86 1.32399 397.906 0.894835 396.618 0.894835C394.199 0.894835 393.376 2.44455 393.376 3.62471C393.376 5.28171 394.342 6.14001 396.475 6.97447C398.943 7.97582 400.254 9.09638 400.254 11.3375C400.254 13.5786 398.705 15.4502 395.51 15.4502C394.21 15.4502 392.708 15.033 391.934 14.4488L392.327 13.5667L392.351 13.5548Z" fill="#051336"/>
<path d="M407.097 13.5548C407.943 14.127 409.112 14.5442 410.363 14.5442C412.604 14.5442 413.975 13.2687 413.975 11.4329C413.975 9.75203 413.105 8.7626 410.947 7.94006C408.539 7.08176 407.097 5.84199 407.097 3.80352C407.097 1.61009 408.909 0.0126953 411.448 0.0126953C412.855 0.0126953 413.916 0.370325 414.428 0.71603L414.011 1.61009C413.606 1.32399 412.652 0.894835 411.365 0.894835C408.945 0.894835 408.122 2.44455 408.122 3.62471C408.122 5.28171 409.088 6.14001 411.222 6.97447C413.689 7.97582 415 9.09638 415 11.3375C415 13.5786 413.451 15.4502 410.256 15.4502C408.957 15.4502 407.455 15.033 406.68 14.4488L407.073 13.5667L407.097 13.5548Z" fill="#051336"/>
</svg>
