<svg width="415" height="16" viewBox="0 0 415 16" fill="none" xmlns="http://www.w3.org/2000/svg">
<path d="M11.7182 14.5557C10.9672 14.8656 9.40554 15.3663 7.35516 15.3663C5.30477 15.3663 3.56433 14.8656 2.0623 13.4113C0.822533 12.2073 0 10.1927 0 7.78465C0 3.6362 2.72988 0.0957031 7.80816 0.0957031C9.41747 0.0957031 10.7168 0.489088 11.301 0.763268L10.9553 1.64542C10.1804 1.27587 9.17904 1.00169 7.76046 1.00169C3.62393 1.00169 1.09672 3.68388 1.09672 7.73697C1.09672 11.7901 3.57625 14.4842 7.52205 14.4842C9.0956 14.4842 10.097 14.2458 10.6572 13.9597V8.69063H7.18827V7.82041H11.7182V14.5676V14.5557Z" fill="white"/>
<path d="M20.3368 0.239258V9.27526C20.3368 13.078 22.125 14.5562 24.3184 14.5562C26.786 14.5562 28.5026 12.9588 28.5026 9.27526V0.239258H29.5636V9.17989C29.5636 13.7694 27.096 15.4503 24.2588 15.4503C21.6481 15.4503 19.2759 13.9244 19.2759 9.33486V0.239258H20.3368Z" fill="white"/>
<path d="M38.6825 0.239258V15.2118H37.6216V0.239258H38.6825Z" fill="white"/>
<path d="M46.7542 0.452971C47.8986 0.262238 49.1741 0.131104 50.5927 0.131104C53.3225 0.131104 55.3848 0.870197 56.6127 2.18149C57.8167 3.42126 58.4843 5.1021 58.4843 7.36706C58.4843 9.63202 57.8882 11.5513 56.5292 13.0414C55.2179 14.4838 52.953 15.3302 50.0681 15.3302C48.9118 15.3302 47.827 15.3063 46.7542 15.199V0.452971ZM47.8151 14.3288C48.4231 14.4242 49.2933 14.4361 50.235 14.4361C55.0391 14.4361 57.4114 11.7539 57.4114 7.41474C57.4472 3.61199 55.3372 1.01325 50.5331 1.01325C49.3767 1.01325 48.4708 1.12054 47.8151 1.25167V14.3288Z" fill="white"/>
<path d="M66.6249 0.239258V15.2118H65.564V0.239258H66.6249Z" fill="white"/>
<path d="M74.696 15.2113V0.23873H75.6974L81.5386 9.08399C82.7545 10.9556 83.6247 12.3384 84.3519 13.7927L84.3996 13.757C84.2446 11.7423 84.2327 10.0377 84.2327 7.67734V0.226807H85.2579V15.1994H84.2685L78.5584 6.48525C77.4378 4.76865 76.4246 3.1951 75.6616 1.64539L75.602 1.68115C75.7212 3.52888 75.7451 5.13819 75.7451 7.62965V15.1994H74.7199L74.696 15.2113Z" fill="white"/>
<path d="M104.057 14.5557C103.306 14.8656 101.744 15.3663 99.6938 15.3663C97.6434 15.3663 95.903 14.8656 94.4009 13.4113C93.1612 12.2073 92.3386 10.1927 92.3386 7.78465C92.3386 3.6362 95.0685 0.0957031 100.147 0.0957031C101.756 0.0957031 103.055 0.489088 103.64 0.763268L103.294 1.64542C102.519 1.27587 101.518 1.00169 100.099 1.00169C95.9626 1.00169 93.4353 3.68388 93.4353 7.73697C93.4353 11.7901 95.9149 14.4842 99.8607 14.4842C101.434 14.4842 102.436 14.2458 102.996 13.9597V8.69063H99.5269V7.82041H104.057V14.5676V14.5557Z" fill="white"/>
<path d="M123.107 15.2118V8.73882L118.35 0.239258H119.542L121.998 4.70957C122.642 5.87782 123.178 6.85533 123.691 7.94012H123.738C124.203 6.92685 124.799 5.87782 125.467 4.69765L128.03 0.251181H129.222L124.167 8.77458V15.2238H123.118L123.107 15.2118Z" fill="white"/>
<path d="M147.043 7.58166C147.043 12.8626 143.813 15.4613 140.344 15.4613C136.66 15.4613 133.811 12.5646 133.811 7.87968C133.811 3.19479 136.779 0 140.522 0C144.266 0 147.043 2.94445 147.043 7.58166ZM134.908 7.84392C134.908 11.2175 136.863 14.5792 140.403 14.5792C143.944 14.5792 145.935 11.3487 145.935 7.65319C145.935 4.49416 144.206 0.894063 140.439 0.894063C136.672 0.894063 134.896 4.36303 134.896 7.85584L134.908 7.84392Z" fill="white"/>
<path d="M155.186 0.239258V9.27526C155.186 13.078 156.974 14.5562 159.179 14.5562C161.647 14.5562 163.363 12.9588 163.363 9.27526V0.239258H164.412V9.17989C164.412 13.7694 161.945 15.4503 159.108 15.4503C156.497 15.4503 154.125 13.9244 154.125 9.33486V0.239258H155.174H155.186Z" fill="white"/>
<path d="M172.483 0.452971C173.401 0.250317 174.676 0.131104 175.725 0.131104C177.668 0.131104 178.896 0.548339 179.755 1.39472C180.398 2.0146 180.804 3.01595 180.804 4.06499C180.804 6.07961 179.612 7.37898 177.871 7.9631V8.01078C179.075 8.40417 179.826 9.53665 180.184 11.1936C180.696 13.5301 180.983 14.6388 181.304 15.2348H180.196C179.957 14.8057 179.635 13.4824 179.242 11.587C178.777 9.42936 177.859 8.45186 175.892 8.36841H173.556V15.2348H172.507V0.464886L172.483 0.452971ZM173.532 7.49819H175.904C178.217 7.49819 179.719 6.19882 179.719 4.23188C179.719 1.93115 178.026 1.00133 175.69 1.00133C174.676 1.00133 173.913 1.10861 173.532 1.20398V7.49819Z" fill="white"/>
<path d="M197.444 0.41721C198.315 0.262239 199.387 0.131104 200.639 0.131104C202.427 0.131104 203.774 0.596023 204.597 1.39472C205.324 2.09805 205.741 3.07556 205.741 4.32725C205.741 5.57893 205.384 6.58028 204.704 7.31937C203.75 8.41609 202.141 8.98829 200.305 8.98829C199.638 8.98829 199.018 8.97637 198.493 8.80948V15.211H197.444V0.41721ZM198.493 7.89158C199.018 8.05847 199.674 8.10615 200.389 8.10615C203.071 8.10615 204.68 6.80678 204.68 4.43453C204.68 2.06228 202.976 1.01325 200.603 1.01325C199.638 1.01325 198.899 1.10861 198.493 1.19206V7.87965V7.89158Z" fill="white"/>
<path d="M212.632 9.97859L210.784 15.2118H209.699L215.111 0.239258H216.137L221.525 15.2118H220.428L218.545 9.97859H212.62H212.632ZM218.235 9.08452L216.411 4.07777C216.041 3.04066 215.838 2.28965 215.624 1.44327H215.564C215.35 2.31349 215.111 3.08833 214.789 4.042L212.954 9.08452H218.223H218.235Z" fill="white"/>
<path d="M229.488 1.13332H224.613V0.239258H235.425V1.13332H230.549V15.2118H229.488V1.13332Z" fill="white"/>
<path d="M242.482 0.239258V6.81956H250.744V0.239258H251.804V15.2118H250.744V7.72555H242.482V15.2118H241.433V0.239258H242.482Z" fill="white"/>
<path d="M271.068 1.13332H266.193V0.239258H277.005V1.13332H272.129V15.2118H271.068V1.13332Z" fill="white"/>
<path d="M294.684 7.58166C294.684 12.8626 291.453 15.4613 287.984 15.4613C284.301 15.4613 281.451 12.5646 281.451 7.87968C281.451 3.19479 284.42 0 288.163 0C291.906 0 294.684 2.94445 294.684 7.58166ZM282.548 7.84392C282.548 11.2175 284.503 14.5792 288.044 14.5792C291.584 14.5792 293.575 11.3487 293.575 7.65319C293.575 4.49416 291.846 0.894063 288.079 0.894063C284.312 0.894063 282.536 4.36303 282.536 7.85584L282.548 7.84392Z" fill="white"/>
<path d="M310.61 13.5545C311.456 14.1267 312.624 14.544 313.876 14.544C316.117 14.544 317.488 13.2684 317.488 11.4326C317.488 9.75178 316.618 8.76235 314.46 7.93981C312.052 7.08151 310.61 5.84174 310.61 3.80328C310.61 1.60984 312.422 0.0124512 314.961 0.0124512C316.367 0.0124512 317.428 0.370081 317.941 0.715786L317.524 1.60985C317.118 1.32375 316.165 0.894591 314.877 0.894591C312.457 0.894591 311.635 2.4443 311.635 3.62447C311.635 5.28146 312.6 6.13977 314.734 6.97423C317.202 7.97558 318.513 9.09613 318.513 11.3373C318.513 13.5784 316.963 15.45 313.769 15.45C312.469 15.45 310.967 15.0327 310.192 14.4486L310.586 13.5665L310.61 13.5545Z" fill="white"/>
<path d="M326.882 0.239258V9.27526C326.882 13.078 328.67 14.5562 330.876 14.5562C333.343 14.5562 335.06 12.9588 335.06 9.27526V0.239258H336.109V9.17989C336.109 13.7694 333.641 15.4503 330.804 15.4503C328.194 15.4503 325.821 13.9244 325.821 9.33486V0.239258H326.87H326.882Z" fill="white"/>
<path d="M354.324 14.6865C353.573 15.0679 352.131 15.4375 350.283 15.4375C346.659 15.4375 343.202 13.1249 343.202 7.80816C343.202 3.36168 346.063 0 350.795 0C352.703 0 353.811 0.417233 354.264 0.65565L353.919 1.54971C353.156 1.16825 352.071 0.894063 350.807 0.894063C346.766 0.894063 344.311 3.51666 344.311 7.82008C344.311 11.8851 346.635 14.5077 350.64 14.5077C351.928 14.5077 353.168 14.2454 354.026 13.8163L354.348 14.6746L354.324 14.6865Z" fill="white"/>
<path d="M371.072 14.6865C370.321 15.0679 368.879 15.4375 367.031 15.4375C363.407 15.4375 359.95 13.1249 359.95 7.80816C359.95 3.36168 362.811 0 367.544 0C369.451 0 370.56 0.417233 371.013 0.65565L370.667 1.54971C369.904 1.16825 368.819 0.894063 367.556 0.894063C363.515 0.894063 361.059 3.51666 361.059 7.82008C361.059 11.8851 363.383 14.5077 367.389 14.5077C368.676 14.5077 369.916 14.2454 370.774 13.8163L371.096 14.6746L371.072 14.6865Z" fill="white"/>
<path d="M385.067 7.77323H379.083V14.3178H385.783V15.2118H378.034V0.239258H385.425V1.13332H379.083V6.87917H385.067V7.77323Z" fill="white"/>
<path d="M392.352 13.5545C393.198 14.1267 394.366 14.544 395.618 14.544C397.859 14.544 399.23 13.2684 399.23 11.4326C399.23 9.75178 398.36 8.76235 396.202 7.93981C393.794 7.08151 392.352 5.84174 392.352 3.80328C392.352 1.60984 394.164 0.0124512 396.703 0.0124512C398.109 0.0124512 399.17 0.370081 399.683 0.715786L399.266 1.60985C398.86 1.32375 397.907 0.894591 396.619 0.894591C394.199 0.894591 393.377 2.4443 393.377 3.62447C393.377 5.28146 394.342 6.13977 396.476 6.97423C398.944 7.97558 400.255 9.09613 400.255 11.3373C400.255 13.5784 398.705 15.45 395.511 15.45C394.211 15.45 392.709 15.0327 391.934 14.4486L392.328 13.5665L392.352 13.5545Z" fill="white"/>
<path d="M407.097 13.5545C407.943 14.1267 409.111 14.544 410.363 14.544C412.604 14.544 413.975 13.2684 413.975 11.4326C413.975 9.75178 413.105 8.76235 410.947 7.93981C408.539 7.08151 407.097 5.84174 407.097 3.80328C407.097 1.60984 408.909 0.0124512 411.448 0.0124512C412.854 0.0124512 413.915 0.370081 414.428 0.715786L414.011 1.60985C413.605 1.32375 412.652 0.894591 411.364 0.894591C408.944 0.894591 408.122 2.4443 408.122 3.62447C408.122 5.28146 409.087 6.13977 411.221 6.97423C413.689 7.97558 415 9.09613 415 11.3373C415 13.5784 413.45 15.45 410.256 15.45C408.956 15.45 407.454 15.0327 406.679 14.4486L407.073 13.5665L407.097 13.5545Z" fill="white"/>
</svg>
