<svg width="479" height="255" viewBox="0 0 479 255" fill="none" xmlns="http://www.w3.org/2000/svg">
<g clip-path="url(#clip0_73_618)">
<mask id="mask0_73_618" style="mask-type:luminance" maskUnits="userSpaceOnUse" x="0" y="0" width="479" height="287">
<path d="M61.6957 196.406C109.995 201.1 154.471 225.092 198.335 244C251.273 266.822 305.621 289.348 364.385 286.064C404.705 283.819 443.059 270.682 479 252.888V38.8173C479 17.3861 461.632 0 440.183 0H38.8173C17.3676 0 0 17.3676 0 38.8173V205.553C19.3715 196.925 40.6542 194.365 61.6957 196.406Z" fill="white"/>
</mask>
<g mask="url(#mask0_73_618)">
<path d="M263.741 354.161C259.956 354.161 256.857 351.062 256.857 347.277V150.055C256.857 146.27 259.956 143.171 263.741 143.171C267.527 143.171 270.625 146.27 270.625 150.055V347.277C270.625 351.062 267.527 354.161 263.741 354.161Z" fill="#294A75"/>
</g>
<path d="M202.157 55.9443H332.748C363.012 55.9443 387.56 80.5113 387.56 110.756V174.697H147.346V110.756C147.346 80.4927 171.913 55.9443 202.157 55.9443Z" fill="#0E80C6"/>
<path d="M252.498 164.176C252.498 164.065 252.498 163.953 252.498 163.842V115.339C252.498 87.5064 231.16 64.7393 205.053 64.7393C178.964 64.7393 157.607 87.5064 157.607 115.339V163.842C157.607 163.953 157.607 164.065 157.607 164.176H252.461H252.498Z" fill="#284A77"/>
<path d="M382.476 164.176H138.198C135.38 164.176 133.096 166.461 133.096 169.279V169.613C133.096 172.431 135.38 174.715 138.198 174.715H382.476C385.294 174.715 387.579 172.431 387.579 169.613V169.279C387.579 166.461 385.294 164.176 382.476 164.176Z" fill="#2490E3"/>
<path d="M209.024 84.7788L209.507 143.673C209.544 148.293 206.185 152.115 202.066 152.171L107.324 153.154C103.186 153.191 99.7904 149.443 99.7347 144.823L99.2523 85.9292C99.2151 81.309 102.555 77.4866 106.693 77.431L201.435 76.4475C205.554 76.4104 208.987 80.1586 209.024 84.7788Z" fill="#FFF5BD"/>
<path opacity="0.28" d="M209.172 103.52L209.506 143.673C209.544 148.293 206.185 152.115 202.066 152.171L107.323 153.154C103.186 153.192 99.79 149.443 99.7344 144.823L99.4004 100.773L156.847 133.82L209.154 103.538L209.172 103.52Z" fill="#F2AF5C"/>
<path opacity="0.22" d="M99.4199 100.755L135.677 121.666L99.7354 146.363L99.4199 100.755Z" fill="#ED7E3D"/>
<path opacity="0.22" d="M208.876 103.872L174.697 124.023L209.247 144.805L208.876 103.872Z" fill="#ED7E3D"/>
<path d="M177.332 77.2639C177.313 70.3614 171.561 65.7227 165.401 65.7227C161.82 65.7227 158.647 67.6153 156.606 70.5655C154.565 67.6153 151.392 65.7227 147.811 65.7227C141.651 65.7227 136.678 71.3263 136.678 78.2288C136.678 81.8285 138.032 85.0571 140.203 87.3394L140.296 87.4136C140.741 87.8775 141.205 88.2857 141.706 88.6568L156.921 102.072V102.258L157.033 102.165L157.144 102.258V102.072C161.894 97.8787 166.96 94.112 171.45 89.5289C174.419 86.5044 177.351 81.9027 177.332 77.2454V77.2639Z" fill="#F9A993"/>
<path d="M119.865 96.5615H77.0401C75.0828 96.5615 73.4961 98.1482 73.4961 100.106V100.328C73.4961 102.286 75.0828 103.872 77.0401 103.872H119.865C121.823 103.872 123.409 102.286 123.409 100.328V100.106C123.409 98.1482 121.823 96.5615 119.865 96.5615Z" fill="#FFF5BD"/>
<path d="M158.981 114.801H116.155C114.198 114.801 112.611 116.387 112.611 118.345V118.567C112.611 120.525 114.198 122.111 116.155 122.111H158.981C160.938 122.111 162.525 120.525 162.525 118.567V118.345C162.525 116.387 160.938 114.801 158.981 114.801Z" fill="#FFF5BD"/>
<path d="M102.74 114.801H59.9151C57.9578 114.801 56.3711 116.387 56.3711 118.345V118.567C56.3711 120.525 57.9578 122.111 59.9151 122.111H102.74C104.698 122.111 106.284 120.525 106.284 118.567V118.345C106.284 116.387 104.698 114.801 102.74 114.801Z" fill="#FFF5BD"/>
<path d="M58.6157 97.0996H38.669C37.2856 97.0996 36.1641 98.2211 36.1641 99.6045V101.905C36.1641 103.289 37.2856 104.41 38.669 104.41H58.6157C59.9992 104.41 61.1207 103.289 61.1207 101.905V99.6045C61.1207 98.2211 59.9992 97.0996 58.6157 97.0996Z" fill="#FFF5BD"/>
<path d="M291.537 140.778V26.1074" stroke="#F9A993" stroke-width="1.83" stroke-linecap="round" stroke-linejoin="round"/>
<path d="M293.449 26.1074V61.7889L331.302 43.9574L293.449 26.1074Z" fill="#F9A993" stroke="#F9A993" stroke-width="1.83" stroke-linecap="round" stroke-linejoin="round"/>
<path d="M302.541 139.59C302.541 145.249 298.255 149.814 292.948 149.814C287.642 149.814 283.355 145.231 283.355 139.59C283.355 133.949 287.642 129.366 292.948 129.366C298.255 129.366 302.541 133.949 302.541 139.59Z" fill="#F9A993" stroke="#F9A993" stroke-width="1.83" stroke-linecap="round" stroke-linejoin="round"/>
<path d="M418.734 19.167L423.521 27.9064L432.242 32.6751L423.521 37.4438L418.734 46.1832L413.965 37.4438L405.244 32.6751L413.965 27.9064L418.734 19.167Z" fill="#051336"/>
<path d="M432.241 97.915L433.54 100.29L435.897 101.57L433.54 102.869L432.241 105.244L430.942 102.869L428.586 101.57L430.942 100.29L432.241 97.915Z" fill="#051336"/>
<path d="M390.975 48.4844L393.61 53.3087L398.434 55.9435L393.61 58.5784L390.975 63.4212L388.34 58.5784L383.516 55.9435L388.34 53.3087L390.975 48.4844Z" fill="#051336"/>
<path d="M95.3362 9.68579L98.6761 15.809L104.818 19.1674L98.6761 22.5259L95.3362 28.6491L91.9777 22.5259L85.8359 19.1674L91.9777 15.809L95.3362 9.68579Z" fill="#051336"/>
<path d="M128.697 43.8643L129.514 45.3672L130.998 46.1836L129.514 47.0001L128.697 48.4845L127.881 47.0001L126.396 46.1836L127.881 45.3672L128.697 43.8643Z" fill="#051336"/>
<path d="M74.5364 34.3643L79.5278 43.4934L88.6569 48.4847L79.5278 53.476L74.5364 62.6051L69.5451 53.476L60.416 48.4847L69.5451 43.4934L74.5364 34.3643Z" fill="#051336"/>
<path d="M79.2492 161.003L82.2366 166.458L87.6918 169.446L82.2366 172.414L79.2492 177.87L76.2618 172.414L70.8066 169.446L76.2618 166.458L79.2492 161.003Z" fill="#051336"/>
<path d="M32.7863 151.075L35.2912 155.658L39.8558 158.163L35.2912 160.65L32.7863 165.233L30.2999 160.65L25.7168 158.163L30.2999 155.658L32.7863 151.075Z" fill="#051336"/>
<path d="M167.813 187.87L170.002 191.897L174.029 194.105L170.002 196.294L167.813 200.321L165.605 196.294L161.578 194.105L165.605 191.897L167.813 187.87Z" fill="#051336"/>
<path d="M197.259 18.9629L199.801 23.5831L204.421 26.1066L199.801 28.6487L197.259 33.2689L194.735 28.6487L190.115 26.1066L194.735 23.5831L197.259 18.9629Z" fill="#051336"/>
</g>
<defs>
<clipPath id="clip0_73_618">
<rect width="479" height="255" fill="white"/>
</clipPath>
</defs>
</svg>
